Coordinates
version=1
nRows=30
nColumns=38
inDegrees=no

Units are S.I. units (second, meters, Newtons, ...)
If the header above contains a line with 'inDegrees', this indicates whether rotational values are in degrees (yes) or radians (no).

endheader
time	pelvis_tilt	pelvis_list	pelvis_rotation	pelvis_tx	pelvis_ty	pelvis_tz	hip_flexion_r	hip_adduction_r	hip_rotation_r	knee_angle_r	ankle_angle_r	subtalar_angle_r	mtp_angle_r	hip_flexion_l	hip_adduction_l	hip_rotation_l	knee_angle_l	ankle_angle_l	subtalar_angle_l	mtp_angle_l	lumbar_extension	lumbar_bending	lumbar_rotation	arm_flex_r	arm_add_r	arm_rot_r	elbow_flex_r	pro_sup_r	wrist_flex_r	wrist_dev_r	arm_flex_l	arm_add_l	arm_rot_l	elbow_flex_l	pro_sup_l	wrist_flex_l	wrist_dev_l
0.49	1.66105	1.56098	-0.18832	0.708815	-0.244607	1.00791	-0.124881	0.0386179	-0.135611	0.46998	0.0548173	0	0	0.395951	-0.0218673	-0.317094	0.295082	-0.175892	0	0	-0.318621	-0.00998347	0.105148	0.114055	-0.374191	1.12722	0.409706	0.749751	0	0	-0.0132603	-0.290911	0.512233	0.4556	1.0737	0	0
0.5	2.27508	1.56097	-0.807116	0.708631	-0.23358	1.00686	-0.143224	0.0330079	-0.131689	0.467408	0.0541836	0	0	0.393439	-0.021217	-0.323806	0.310719	-0.175607	0	0	-0.324857	-0.0154316	0.108455	0.112909	-0.37379	1.12606	0.410183	0.749899	0	0	-0.0165932	-0.29132	0.504093	0.458969	1.07927	0	0
0.51	2.69684	1.55802	-1.2329	0.708308	-0.222347	1.00586	-0.161448	0.0273223	-0.129595	0.464491	0.0519146	0	0	0.391439	-0.0212483	-0.331675	0.332263	-0.176055	0	0	-0.330416	-0.0205188	0.111791	0.110944	-0.373307	1.1238	0.410581	0.749822	0	0	-0.0195945	-0.291494	0.496989	0.461674	1.08525	0	0
0.52	2.91702	1.55398	-1.45658	0.707906	-0.210889	1.00491	-0.178454	0.0214559	-0.128504	0.464156	0.048256	0	0	0.390124	-0.022327	-0.341606	0.360342	-0.177715	0	0	-0.335283	-0.0250815	0.115147	0.108256	-0.372867	1.12022	0.411146	0.749606	0	0	-0.0223557	-0.291362	0.491015	0.463382	1.09192	0	0
0.53	3.03436	1.54982	-1.57703	0.707435	-0.199197	1.00401	-0.194738	0.0157042	-0.127849	0.464523	0.0435117	0	0	0.38932	-0.0245577	-0.352482	0.394373	-0.179964	0	0	-0.339442	-0.0290908	0.11868	0.10489	-0.372507	1.11645	0.411781	0.750346	0	0	-0.0250377	-0.290842	0.485636	0.464391	1.0988	0	0
0.54	3.11387	1.54709	-1.65948	0.706827	-0.187237	1.00308	-0.208952	0.00970875	-0.126735	0.465874	0.037717	0	0	0.388093	-0.0264106	-0.361319	0.427322	-0.182566	0	0	-0.341195	-0.032931	0.122301	0.0998988	-0.372469	1.11237	0.4125	0.751127	0	0	-0.0280834	-0.290164	0.481188	0.464793	1.10499	0	0
0.55	-3.07438	1.54486	-1.75742	0.70604	-0.175005	1.00223	-0.221826	0.00238747	-0.125609	0.468506	0.0306274	0	0	0.385443	-0.0263944	-0.369089	0.455024	-0.186824	0	0	-0.341707	-0.0373066	0.126158	0.0943297	-0.371905	1.10811	0.411958	0.752333	0	0	-0.0315929	-0.289211	0.476751	0.464877	1.11114	0	0
0.56	-2.92676	1.54178	-1.90779	0.705102	-0.162715	1.00173	-0.23322	-0.00761659	-0.12354	0.474769	0.0214862	0	0	0.381789	-0.0225211	-0.374204	0.473653	-0.196594	0	0	-0.342622	-0.0436889	0.12928	0.0892555	-0.36993	1.10341	0.409092	0.753715	0	0	-0.034595	-0.288136	0.472271	0.46398	1.11757	0	0
0.57	-2.74001	1.53725	-2.09642	0.704095	-0.150537	1.00173	-0.2416	-0.0200152	-0.120147	0.486281	0.010498	0	0	0.379	-0.0150541	-0.376327	0.486332	-0.210497	0	0	-0.344203	-0.0526274	0.130483	0.0852752	-0.366128	1.09819	0.403954	0.755253	0	0	-0.0359446	-0.286928	0.468277	0.460978	1.12383	0	0
0.58	-2.57216	1.53148	-2.26446	0.702904	-0.138411	1.00217	-0.24721	-0.0332212	-0.115549	0.501646	-0.00281709	0	0	0.376462	-0.00671388	-0.378042	0.499337	-0.225068	0	0	-0.345936	-0.0624464	0.130053	0.081729	-0.361163	1.09311	0.397337	0.757905	0	0	-0.0362224	-0.285852	0.464899	0.456988	1.13014	0	0
0.59	-2.47103	1.52614	-2.36473	0.701531	-0.126135	1.00277	-0.25074	-0.0439822	-0.108009	0.520371	-0.0181162	0	0	0.373269	-0.000104086	-0.37705	0.515667	-0.237097	0	0	-0.347114	-0.0699705	0.129081	0.0778061	-0.356858	1.08795	0.391403	0.761224	0	0	-0.0364284	-0.284251	0.462193	0.4528	1.13598	0	0
0.6	-2.41869	1.52171	-2.41556	0.700003	-0.113715	1.00343	-0.251828	-0.0520058	-0.0973867	0.544385	-0.03351	0	0	0.368232	0.0049347	-0.374726	0.532342	-0.243326	0	0	-0.347702	-0.0751284	0.1281	0.0730578	-0.354201	1.08247	0.38771	0.763169	0	0	-0.0373193	-0.2829	0.460677	0.449611	1.14052	0	0
0.61	-2.38912	1.51837	-2.44299	0.698331	-0.101148	1.00415	-0.249396	-0.0579596	-0.0845171	0.574953	-0.0523439	0	0	0.361809	0.0095578	-0.372357	0.54732	-0.244992	0	0	-0.347399	-0.0784332	0.127419	0.0673957	-0.35251	1.07672	0.385113	0.765165	0	0	-0.0385266	-0.281569	0.459779	0.446553	1.14448	0	0
0.62	-2.34763	1.51581	-2.48044	0.696465	-0.0884595	1.00496	-0.243026	-0.0631868	-0.0715819	0.609599	-0.0750323	0	0	0.353595	0.0161305	-0.368394	0.556284	-0.244026	0	0	-0.345648	-0.0809619	0.125239	0.0614263	-0.350384	1.0713	0.381795	0.767666	0	0	-0.0395565	-0.280165	0.459801	0.44241	1.14733	0	0
0.63	-2.28179	1.51443	-2.54058	0.694558	-0.0756075	1.00572	-0.231074	-0.0676507	-0.0590775	0.649287	-0.1025	0	0	0.346256	0.0236001	-0.36318	0.563497	-0.241049	0	0	-0.34117	-0.0829361	0.121421	0.0551582	-0.347046	1.06624	0.376844	0.77095	0	0	-0.0410107	-0.279277	0.461136	0.437554	1.14955	0	0
0.64	-2.20185	1.51334	-2.61684	0.69285	-0.0630713	1.0065	-0.213067	-0.0719169	-0.0418272	0.694896	-0.136968	0	0	0.339147	0.0301933	-0.360955	0.568375	-0.237525	0	0	-0.335356	-0.0856778	0.118653	0.0495584	-0.343879	1.0612	0.372359	0.774949	0	0	-0.042998	-0.279289	0.463083	0.434256	1.15048	0	0
0.65	-2.10695	1.51208	-2.70924	0.691268	-0.0508878	1.00727	-0.190197	-0.0757284	-0.0208736	0.74415	-0.174927	0	0	0.331759	0.0364531	-0.362185	0.569037	-0.234413	0	0	-0.328644	-0.0889673	0.116227	0.0447427	-0.341472	1.05651	0.369249	0.779755	0	0	-0.0455726	-0.280409	0.465734	0.433466	1.14959	0	0
0.66	-2.0072	1.51054	-2.80626	0.68972	-0.0389943	1.00798	-0.163371	-0.0783876	0.00183654	0.797572	-0.210057	0	0	0.324829	0.0428324	-0.364132	0.568964	-0.231201	0	0	-0.32158	-0.0921798	0.113182	0.0406592	-0.339807	1.05279	0.367621	0.784633	0	0	-0.0488298	-0.282769	0.468753	0.435695	1.14728	0	0
0.67	-1.90282	1.50853	-2.9075	0.688201	-0.0273363	1.00851	-0.133738	-0.0799495	0.0236714	0.85352	-0.239079	0	0	0.318789	0.04944	-0.36663	0.569562	-0.227274	0	0	-0.31386	-0.0953953	0.109151	0.0369521	-0.338889	1.04981	0.367799	0.789676	0	0	-0.0532173	-0.286446	0.471977	0.440705	1.14387	0	0
0.68	-1.8134	1.50569	-2.99337	0.686712	-0.0158831	1.00893	-0.102045	-0.0806019	0.0429617	0.913302	-0.264974	0	0	0.312319	0.056228	-0.369973	0.570807	-0.222201	0	0	-0.306785	-0.098721	0.104125	0.0334925	-0.33863	1.04657	0.369767	0.795277	0	0	-0.0587727	-0.291499	0.47547	0.448838	1.13801	0	0
0.69	-1.76032	1.50177	-3.0424	0.685203	-0.00465798	1.0094	-0.0718998	-0.0807153	0.0587947	0.971626	-0.285527	0	0	0.303179	0.063614	-0.373365	0.571216	-0.216955	0	0	-0.302429	-0.102449	0.0979399	0.0306616	-0.339389	1.04335	0.37406	0.800039	0	0	-0.0647996	-0.297717	0.478861	0.459668	1.13188	0	0
0.7	-1.74074	1.49797	-3.05724	0.683624	0.00630575	1.01001	-0.0426991	-0.0798371	0.0728774	1.02887	-0.301579	0	0	0.291312	0.0706278	-0.375673	0.570357	-0.211279	0	0	-0.301088	-0.105608	0.090561	0.0286945	-0.3411	1.04016	0.380215	0.804094	0	0	-0.0705185	-0.303869	0.480944	0.471339	1.12482	0	0
0.71	-1.75159	1.49516	-3.04069	0.681996	0.0170784	1.01086	-0.0155332	-0.0770524	0.0853201	1.08331	-0.306428	0	0	0.27684	0.0763085	-0.376346	0.568057	-0.206697	0	0	-0.302608	-0.107323	0.0824582	0.0274262	-0.343325	1.03733	0.387193	0.806907	0	0	-0.0751898	-0.309644	0.482293	0.482389	1.11994	0	0
0.72	-1.79015	1.49357	-2.99558	0.680328	0.0277152	1.01198	0.00878478	-0.0723587	0.0950199	1.13368	-0.297414	0	0	0.260217	0.0802872	-0.37586	0.564684	-0.203114	0	0	-0.30681	-0.107173	0.0738444	0.0268589	-0.345757	1.03446	0.394285	0.809318	0	0	-0.0787984	-0.314787	0.482988	0.49246	1.11595	0	0
0.73	-1.85659	1.49277	-2.92172	0.678579	0.0382068	1.01339	0.0306776	-0.0667282	0.101328	1.18035	-0.276614	0	0	0.241455	0.0828773	-0.374289	0.560689	-0.200379	0	0	-0.313789	-0.105251	0.0647537	0.0268889	-0.348606	1.03139	0.401781	0.811958	0	0	-0.0813752	-0.318959	0.482703	0.501606	1.11151	0	0
0.74	-1.92629	1.49276	-2.84441	0.676789	0.048538	1.01491	0.0527263	-0.0603026	0.106362	1.22376	-0.256899	0	0	0.222341	0.0843059	-0.371102	0.555973	-0.19789	0	0	-0.320882	-0.101752	0.0561989	0.0273391	-0.351125	1.02888	0.407992	0.813543	0	0	-0.0822537	-0.321523	0.482443	0.507465	1.10889	0	0
0.75	-1.99991	1.49306	-2.76312	0.674994	0.0587566	1.01647	0.0756795	-0.0538349	0.109669	1.26456	-0.242175	0	0	0.202817	0.0849267	-0.367209	0.550487	-0.195461	0	0	-0.327855	-0.097282	0.0483423	0.0279832	-0.35309	1.02673	0.4129	0.813898	0	0	-0.0818095	-0.32287	0.482504	0.510592	1.10808	0	0
0.76	-2.07888	1.49336	-2.67675	0.673254	0.0688803	1.01803	0.099058	-0.0475198	0.110802	1.30147	-0.229832	0	0	0.183018	0.0849975	-0.363398	0.544465	-0.192734	0	0	-0.334809	-0.0921823	0.041307	0.0287246	-0.354745	1.02503	0.417068	0.813725	0	0	-0.0803824	-0.323148	0.482441	0.511626	1.10791	0	0
0.77	-2.1588	1.49333	-2.59015	0.671562	0.0788453	1.01952	0.12227	-0.0414287	0.111661	1.33323	-0.21838	0	0	0.163381	0.0851887	-0.3602	0.537959	-0.189769	0	0	-0.341629	-0.086999	0.0354572	0.0296807	-0.355845	1.02372	0.419848	0.812881	0	0	-0.0777889	-0.322463	0.482441	0.510504	1.10784	0	0
0.78	-2.23746	1.49294	-2.50561	0.669907	0.0886586	1.02095	0.145355	-0.0355541	0.112263	1.35968	-0.209741	0	0	0.143952	0.0848947	-0.358107	0.532606	-0.187126	0	0	-0.348195	-0.0819054	0.0308543	0.0311092	-0.355998	1.02336	0.420275	0.812023	0	0	-0.0739471	-0.321082	0.483405	0.507243	1.10812	0	0
